# xmcd
#
# Track frame offsets:
#	150
#	12275
#	25657
#	45015
#	58675
#	72200
#	88815
#	102654
#	114804
#	131840
#	154007
#	166410
#
# Disc length: 2407 seconds
#
# Revision: 0
# Processed by: cddbd v1.5.2PL0 Copyright (c) Steve Scherf et al.
# Submitted via: EZCDAudioConverter 1.3.4.1
#
DISCID=9109650c
DTITLE=V/A - The Harder They Come 1/2
DYEAR=1972
DGENRE=
TTITLE0=Jimmy Cliff - You Can Get It If You Really Want
TTITLE1=Scotty - Draw Your Brakes
TTITLE2=The Melodians - Rivers Of Babylon
TTITLE3=Jimmy Cliff - Many Rivers To Cross
TTITLE4=The Maytals - Sweet And Dandy
TTITLE5=Jimmy Cliff - The Harder They Come
TTITLE6=The Slickers - Johnny Too Bad
TTITLE7=Desmond Dekker - 007 (Shanty Town)
TTITLE8=The Maytals - Pressure Drop
TTITLE9=Jimmy Cliff - Sitting In Limbo
TTITLE10=Jimmy Cliff - You Can Get It If You Really Want
TTITLE11=Jimmy Cliff - The Harder They Come
EXTD=
EXTT0=
EXTT1=
EXTT2=
EXTT3=
EXTT4=
EXTT5=
EXTT6=
EXTT7=
EXTT8=
EXTT9=
EXTT10=
EXTT11=
PLAYORDER=
